<?xml version="1.0" encoding="UTF-8" standalone="no"?>
<!-- Created with Inkscape (http://www.inkscape.org/) -->

<svg
   xmlns:dc="http://purl.org/dc/elements/1.1/"
   xmlns:cc="http://creativecommons.org/ns#"
   xmlns:rdf="http://www.w3.org/1999/02/22-rdf-syntax-ns#"
   xmlns:svg="http://www.w3.org/2000/svg"
   xmlns="http://www.w3.org/2000/svg"
   xmlns:sodipodi="http://sodipodi.sourceforge.net/DTD/sodipodi-0.dtd"
   xmlns:inkscape="http://www.inkscape.org/namespaces/inkscape"
   width="94.039536mm"
   height="44.781292mm"
   viewBox="0 0 333.21095 158.67386"
   id="svg2"
   version="1.1"
   inkscape:version="0.91 r"
   sodipodi:docname="tetris.svg">
  <defs
     id="defs4" />
  <sodipodi:namedview
     id="base"
     pagecolor="#ffffff"
     bordercolor="#666666"
     borderopacity="1.0"
     inkscape:pageopacity="0.0"
     inkscape:pageshadow="2"
     inkscape:zoom="0.98994949"
     inkscape:cx="276.79155"
     inkscape:cy="-0.55337098"
     inkscape:document-units="px"
     inkscape:current-layer="layer1"
     showgrid="false"
     fit-margin-top="0"
     fit-margin-left="0"
     fit-margin-right="0"
     fit-margin-bottom="0"
     inkscape:window-width="1366"
     inkscape:window-height="743"
     inkscape:window-x="0"
     inkscape:window-y="0"
     inkscape:window-maximized="1" />
  <metadata
     id="metadata7">
    <rdf:RDF>
      <cc:Work
         rdf:about="">
        <dc:format>image/svg+xml</dc:format>
        <dc:type
           rdf:resource="http://purl.org/dc/dcmitype/StillImage" />
        <dc:title></dc:title>
      </cc:Work>
    </rdf:RDF>
  </metadata>
  <g
     inkscape:label="Camada 1"
     inkscape:groupmode="layer"
     id="layer1"
     transform="translate(-194.95436,-116.32769)">
    <text
       xml:space="preserve"
       style="font-style:normal;font-weight:normal;font-size:40px;line-height:125%;font-family:sans-serif;letter-spacing:0px;word-spacing:0px;fill:#000000;fill-opacity:1;stroke:none;stroke-width:1px;stroke-linecap:butt;stroke-linejoin:miter;stroke-opacity:1"
       x="352.14285"
       y="267.36221"
       id="text4202"
       sodipodi:linespacing="125%"><tspan
         sodipodi:role="line"
         id="tspan4204"
         x="352.14285"
         y="267.36221" /></text>
    <g
       id="g4252">
      <g
         id="g4244">
        <path
           inkscape:connector-curvature="0"
           id="path4223"
           style="font-style:normal;font-variant:normal;font-weight:normal;font-stretch:normal;font-size:medium;line-height:125%;font-family:'Sci Fied Bitmap';-inkscape-font-specification:'Sci Fied Bitmap';letter-spacing:0px;word-spacing:0px;fill:#31ff79;fill-opacity:1;stroke:#000000;stroke-width:4.5;stroke-linecap:butt;stroke-linejoin:miter;stroke-miterlimit:4;stroke-dasharray:none;stroke-opacity:1"
           d="m 253.45436,118.57769 0,11.24999 -22.5,0 0,45 -11.25,0 0,-45 -22.5,0 0,-11.24999 56.25,0 z" />
        <path
           inkscape:connector-curvature="0"
           id="path4225"
           style="font-style:normal;font-variant:normal;font-weight:normal;font-stretch:normal;font-size:medium;line-height:125%;font-family:'Sci Fied Bitmap';-inkscape-font-specification:'Sci Fied Bitmap';letter-spacing:0px;word-spacing:0px;fill:#31ff79;fill-opacity:1;stroke:#000000;stroke-width:4.5;stroke-linecap:butt;stroke-linejoin:miter;stroke-miterlimit:4;stroke-dasharray:none;stroke-opacity:1"
           d="m 312.0774,129.82768 11.25,0 0,11.25 -11.25,0 0,11.25 -22.5,0 0,-11.25 22.5,0 0,-11.25 -33.75,0 0,33.75 45,0 0,11.25 -45,0 0,-11.25 -11.25,0 0,-33.75 11.25,0 0,-11.24999 33.75,0 0,11.24999 z" />
        <path
           inkscape:connector-curvature="0"
           id="path4227"
           style="font-style:normal;font-variant:normal;font-weight:normal;font-stretch:normal;font-size:medium;line-height:125%;font-family:'Sci Fied Bitmap';-inkscape-font-specification:'Sci Fied Bitmap';letter-spacing:0px;word-spacing:0px;fill:#31ff79;fill-opacity:1;stroke:#000000;stroke-width:4.5;stroke-linecap:butt;stroke-linejoin:miter;stroke-miterlimit:4;stroke-dasharray:none;stroke-opacity:1"
           d="m 368.4153,129.82768 0,11.25 -22.5,0 0,22.5 33.75,0 0,11.25 -33.75,0 0,-11.25 -11.25,0 0,-44.99999 11.25,0 0,11.24999 22.5,0 z" />
        <path
           inkscape:connector-curvature="0"
           id="path4229"
           style="font-style:normal;font-variant:normal;font-weight:normal;font-stretch:normal;font-size:medium;line-height:125%;font-family:'Sci Fied Bitmap';-inkscape-font-specification:'Sci Fied Bitmap';letter-spacing:0px;word-spacing:0px;fill:#31ff79;fill-opacity:1;stroke:#000000;stroke-width:4.5;stroke-linecap:butt;stroke-linejoin:miter;stroke-miterlimit:4;stroke-dasharray:none;stroke-opacity:1"
           d="m 435.9153,118.57769 0,11.24999 -33.75,0 0,45 -11.25,0 0,-45 11.25,0 0,-11.24999 33.75,0 z" />
        <path
           inkscape:connector-curvature="0"
           id="path4231"
           style="font-style:normal;font-variant:normal;font-weight:normal;font-stretch:normal;font-size:medium;line-height:125%;font-family:'Sci Fied Bitmap';-inkscape-font-specification:'Sci Fied Bitmap';letter-spacing:0px;word-spacing:0px;fill:#31ff79;fill-opacity:1;stroke:#000000;stroke-width:4.5;stroke-linecap:butt;stroke-linejoin:miter;stroke-miterlimit:4;stroke-dasharray:none;stroke-opacity:1"
           d="m 447.1653,141.07768 11.25,0 0,33.75 -11.25,0 0,-33.75 z m 0,-22.49999 11.25,0 0,11.24999 -11.25,0 0,-11.24999 z" />
        <path
           inkscape:connector-curvature="0"
           id="path4233"
           style="font-style:normal;font-variant:normal;font-weight:normal;font-stretch:normal;font-size:medium;line-height:125%;font-family:'Sci Fied Bitmap';-inkscape-font-specification:'Sci Fied Bitmap';letter-spacing:0px;word-spacing:0px;fill:#31ff79;fill-opacity:1;stroke:#000000;stroke-width:4.5;stroke-linecap:butt;stroke-linejoin:miter;stroke-miterlimit:4;stroke-dasharray:none;stroke-opacity:1"
           d="m 480.9153,141.07768 33.75,0 0,11.25 11.25,0 0,11.25 -11.25,0 0,11.25 -45,0 0,-11.25 45,0 0,-11.25 -33.75,0 0,-11.25 -11.25,0 0,-11.25 11.25,0 0,-11.24999 45,0 0,11.24999 -45,0 0,11.25 z" />
      </g>
      <path
         d="m 340.75646,230.62103 41.60674,0 0,13.86891 13.86892,0 0,13.86892 -13.86892,0 0,13.86892 -55.47566,0 0,-13.86892 55.47566,0 0,-13.86891 -41.60674,0 0,-13.86891 -13.86892,0 0,-13.86892 13.86892,0 0,-13.86891 55.47566,0 0,13.86891 -55.47565,0 0,13.86892 z"
         style="font-style:normal;font-variant:normal;font-weight:normal;font-stretch:normal;font-size:90px;line-height:125%;font-family:'Sci Fied Bitmap';-inkscape-font-specification:'Sci Fied Bitmap';letter-spacing:0px;word-spacing:0px;fill:#000000;fill-opacity:1;stroke:#000000;stroke-width:5.54756546;stroke-linecap:butt;stroke-linejoin:miter;stroke-miterlimit:4;stroke-dasharray:none;stroke-opacity:1"
         id="path4235"
         inkscape:connector-curvature="0" />
    </g>
  </g>
</svg>
